<?xml version="1.0" encoding="utf-8"?>
<!-- Generator: Adobe Illustrator 26.0.0, SVG Export Plug-In . SVG Version: 6.00 Build 0)  -->
<svg version="1.1" id="Capa_1" xmlns="http://www.w3.org/2000/svg" xmlns:xlink="http://www.w3.org/1999/xlink" x="0px" y="0px"
	 viewBox="0 0 662 581" style="enable-background:new 0 0 662 581;" xml:space="preserve">
<style type="text/css">
	.st0{fill:#ECECEC;}
	.st1{fill:#2B454E;}
	.st2{fill:#1A2E35;}
	.st3{fill:#DCDCDC;}
	.st4{fill:#A8A8A8;}
	.st5{fill:#375A64;}
	.st6{fill:#FFFFFF;}
	.st7{fill:#E2E2E2;}
	.st8{fill:#FFC800;}
	.st9{opacity:0.4;fill:#FFFFFF;}
	.st10{opacity:0.3;fill:#FFFFFF;}
	.st11{opacity:0.3;}
	.st12{fill:#FFFFFF;stroke:#000000;stroke-miterlimit:10;}
	.st13{opacity:0.2;}
	.st14{fill:#C8C8C8;}
	.st15{opacity:0.4;}
	.st16{opacity:0.1;}
</style>
<g>
	<path class="st0" d="M102.99,229.6c0.3-1.33,0.6-2.64,0.95-3.9l2.55,2.75c-0.38,0.14-0.77,0.28-1.16,0.41
		c-0.77,0.27-1.56,0.55-2.36,0.87C102.98,229.68,102.99,229.64,102.99,229.6z"/>
	<polygon class="st1" points="95.8,293.5 63.31,302.41 50.41,248.18 82.9,239.27 	"/>
	<polygon class="st2" points="95.27,290.84 62.78,299.75 49.88,245.52 82.37,236.61 	"/>
	<g>
		<polygon class="st3" points="62.75,260.86 56.5,262.57 54.9,255.87 61.15,254.15 		"/>
		<polygon class="st3" points="69.83,258.92 63.58,260.63 61.98,253.93 68.23,252.21 		"/>
		<polygon class="st4" points="76.91,256.98 70.66,258.69 69.06,251.98 75.31,250.27 		"/>
		<polygon class="st4" points="83.99,255.04 77.74,256.75 76.14,250.04 82.39,248.33 		"/>
		<polygon class="st5" points="64.58,268.55 58.33,270.27 56.73,263.56 62.98,261.85 		"/>
		<polygon class="st5" points="71.66,266.61 65.41,268.33 63.81,261.62 70.06,259.91 		"/>
		<polygon class="st5" points="78.74,264.67 72.49,266.38 70.89,259.68 77.14,257.96 		"/>
		<polygon class="st3" points="85.83,262.78 79.58,264.49 77.98,257.79 84.23,256.07 		"/>
		<polygon class="st5" points="66.41,276.25 60.16,277.96 58.56,271.25 64.81,269.54 		"/>
		<polygon class="st5" points="73.49,274.31 67.24,276.02 65.64,269.31 71.89,267.6 		"/>
		<polygon class="st5" points="80.57,272.37 74.32,274.08 72.72,267.37 78.97,265.66 		"/>
		<polygon class="st3" points="87.65,270.42 81.4,272.14 79.8,265.43 86.05,263.72 		"/>
		<polygon class="st5" points="68.24,283.94 61.99,285.65 60.39,278.94 66.64,277.23 		"/>
		<polygon class="st5" points="75.32,282 69.07,283.71 67.47,277 73.72,275.29 		"/>
		<polygon class="st5" points="82.4,280.06 76.15,281.77 74.55,275.06 80.8,273.35 		"/>
		<polygon class="st3" points="89.48,278.12 83.23,279.83 81.63,273.12 87.88,271.41 		"/>
		<polygon class="st5" points="70.07,291.63 63.82,293.35 62.22,286.64 68.47,284.93 		"/>
		<polygon class="st5" points="77.15,289.69 70.9,291.4 69.3,284.7 75.55,282.98 		"/>
		<polygon class="st3" points="84.23,287.75 77.98,289.46 76.38,282.76 82.63,281.04 		"/>
		<polygon class="st3" points="91.31,285.81 85.06,287.52 83.46,280.82 89.71,279.1 		"/>
		<g>
			<path class="st1" d="M57.74,257.97L57.74,257.97c-0.07-0.28,0.05-0.55,0.31-0.62c0.26-0.07,0.48,0.11,0.54,0.38l0,0.01
				c0.06,0.27-0.05,0.55-0.31,0.62C58.03,258.41,57.8,258.23,57.74,257.97z M58.37,257.79L58.37,257.79
				c-0.04-0.16-0.15-0.27-0.27-0.24c-0.12,0.03-0.16,0.18-0.13,0.33l0,0.01c0.04,0.16,0.15,0.26,0.27,0.23
				C58.36,258.09,58.4,257.94,58.37,257.79z M58.35,259.19l0.78-2.08c0.01-0.04,0.04-0.06,0.08-0.07c0.06-0.02,0.12,0.02,0.13,0.08
				c0.01,0.03,0,0.06-0.01,0.08l-0.78,2.08c-0.01,0.04-0.04,0.07-0.08,0.08c-0.06,0.02-0.11-0.02-0.13-0.08
				C58.34,259.24,58.34,259.21,58.35,259.19z M59.08,258.66L59.08,258.66c-0.07-0.28,0.05-0.55,0.31-0.62
				c0.25-0.07,0.48,0.11,0.54,0.38l0,0.01c0.06,0.27-0.06,0.55-0.31,0.62C59.37,259.11,59.14,258.93,59.08,258.66z M59.71,258.49
				L59.71,258.49c-0.04-0.16-0.15-0.27-0.27-0.24c-0.12,0.03-0.16,0.18-0.13,0.33l0,0.01c0.04,0.16,0.15,0.26,0.27,0.23
				C59.7,258.79,59.74,258.64,59.71,258.49z"/>
		</g>
		<g>
			<path class="st1" d="M71.36,254.73c-0.13-0.55,0.2-1.12,0.72-1.27c0.23-0.06,0.46-0.04,0.65,0.05c0.08,0.04,0.11,0.13,0.08,0.22
				c-0.04,0.08-0.13,0.12-0.2,0.09c-0.14-0.07-0.29-0.08-0.46-0.04c-0.18,0.05-0.33,0.17-0.42,0.33c-0.09,0.16-0.12,0.35-0.07,0.54
				c0.05,0.19,0.16,0.34,0.31,0.43c0.15,0.09,0.34,0.12,0.52,0.07c0.16-0.04,0.29-0.14,0.38-0.27c0.05-0.06,0.15-0.08,0.22-0.03
				c0.06,0.06,0.08,0.16,0.03,0.23c-0.13,0.18-0.32,0.32-0.55,0.38C72.03,255.62,71.49,255.29,71.36,254.73z"/>
			<path class="st1" d="M73.64,255.01l-0.39-1.65c-0.02-0.09,0.03-0.17,0.11-0.19l0,0c0,0,0,0,0.01,0l0.84-0.23
				c0.08-0.02,0.16,0.03,0.18,0.11c0.02,0.09-0.03,0.17-0.11,0.2l-0.71,0.19l0.12,0.51l0.61-0.17c0.08-0.02,0.16,0.03,0.18,0.11
				c0.02,0.09-0.03,0.17-0.11,0.2l-0.61,0.17l0.12,0.51l0.71-0.19c0.08-0.02,0.16,0.03,0.18,0.12c0.02,0.08-0.03,0.17-0.11,0.19
				l-0.84,0.23c-0.01,0-0.01,0-0.01,0l0,0C73.74,255.15,73.66,255.09,73.64,255.01z"/>
		</g>
		<g>
			<path class="st1" d="M79.21,252.58c-0.13-0.55,0.2-1.12,0.72-1.27c0.23-0.06,0.46-0.04,0.65,0.05c0.08,0.04,0.11,0.13,0.08,0.22
				c-0.04,0.08-0.13,0.12-0.2,0.09c-0.14-0.07-0.29-0.08-0.46-0.04c-0.18,0.05-0.33,0.17-0.42,0.33c-0.09,0.16-0.12,0.35-0.07,0.54
				c0.05,0.19,0.16,0.34,0.31,0.43c0.15,0.09,0.34,0.12,0.52,0.07c0.16-0.04,0.29-0.14,0.38-0.27c0.05-0.06,0.15-0.08,0.22-0.03
				c0.06,0.06,0.08,0.16,0.03,0.23c-0.13,0.18-0.32,0.32-0.55,0.38C79.88,253.46,79.34,253.13,79.21,252.58z"/>
		</g>
		<g>
			<path class="st6" d="M61.04,265.13l-0.26,1.83c-0.01,0.06-0.05,0.11-0.11,0.13c-0.02,0-0.04,0.01-0.06,0
				c-0.08-0.02-0.14-0.1-0.13-0.18l0.22-1.59l-0.67,0.18c-0.08,0.02-0.16-0.03-0.18-0.12c-0.02-0.09,0.03-0.17,0.11-0.19l0.89-0.24
				c0.01,0,0.02,0,0.03,0c0.02,0,0.04,0,0.06,0.01c0,0,0.01,0,0.01,0.01c0.01,0,0.01,0,0.01,0.01c0,0.01,0.01,0.01,0.01,0.01
				c0,0,0.01,0.01,0.01,0.01c0,0,0.01,0.01,0.01,0.01c0,0,0.01,0.01,0.01,0.01c0,0,0.01,0.01,0.01,0.01c0,0,0,0.01,0.01,0.01
				c0.01,0.02,0.01,0.04,0.01,0.06C61.04,265.11,61.04,265.12,61.04,265.13z"/>
		</g>
		<g>
			<path class="st6" d="M68.37,264.27c0.09,0.37-0.12,0.74-0.46,0.83c-0.34,0.09-0.7-0.13-0.78-0.49c-0.06-0.23,0.01-0.47,0.15-0.63
				c-0.07-0.06-0.13-0.15-0.15-0.25c-0.06-0.25,0.08-0.51,0.32-0.58c0.23-0.06,0.48,0.09,0.54,0.34c0.02,0.1,0.02,0.21-0.02,0.3
				C68.16,263.86,68.32,264.04,68.37,264.27z M68.09,264.35c-0.05-0.2-0.24-0.32-0.42-0.27c-0.19,0.05-0.3,0.26-0.25,0.46
				c0.05,0.2,0.24,0.32,0.43,0.27C68.03,264.75,68.14,264.54,68.09,264.35z M67.41,263.65c0.02,0.09,0.1,0.14,0.19,0.12
				c0.08-0.02,0.13-0.11,0.11-0.2c-0.02-0.08-0.1-0.14-0.18-0.11C67.44,263.47,67.39,263.56,67.41,263.65z"/>
		</g>
		<g>
			<path class="st6" d="M74.08,262.05c-0.09-0.37,0.12-0.75,0.47-0.85c0.33-0.09,0.66,0.1,0.77,0.43c0,0,0,0,0,0
				c0.02,0.05,0.03,0.1,0.04,0.16c0.04,0.19,0.07,0.4,0.05,0.6c-0.02,0.2-0.09,0.41-0.22,0.57c-0.09,0.11-0.21,0.19-0.36,0.24
				c-0.08,0.02-0.16-0.02-0.19-0.11c-0.02-0.08,0.02-0.17,0.1-0.2c0.1-0.03,0.17-0.08,0.23-0.15c0.05-0.07,0.09-0.14,0.12-0.24
				c0.01-0.03,0.01-0.05,0.02-0.08c-0.07,0.06-0.15,0.1-0.24,0.12C74.52,262.65,74.17,262.42,74.08,262.05z M74.37,261.97
				c0.05,0.2,0.24,0.33,0.43,0.27c0.19-0.05,0.3-0.26,0.25-0.46c-0.05-0.2-0.24-0.32-0.43-0.27
				C74.43,261.56,74.32,261.77,74.37,261.97z"/>
		</g>
		<g>
			<path class="st1" d="M81.35,260.44c-0.02-0.09,0.03-0.19,0.11-0.21l0.81-0.22c0.08-0.02,0.17,0.03,0.19,0.13
				c0.02,0.09-0.03,0.18-0.11,0.21l-0.81,0.22C81.46,260.58,81.37,260.53,81.35,260.44z"/>
		</g>
		<g>
			<path class="st6" d="M63.28,273.96c0.02,0.09-0.03,0.17-0.11,0.19l-0.03,0.01l0.05,0.21c0.02,0.09-0.03,0.17-0.11,0.19
				c-0.08,0.02-0.16-0.03-0.18-0.11l-0.05-0.21l-0.81,0.22l0,0l0,0c-0.03,0.01-0.06,0.01-0.1-0.01c-0.08-0.04-0.11-0.13-0.07-0.21
				l0.66-1.55c0,0,0,0,0-0.01c0,0,0-0.01,0.01-0.01c0.01,0,0.01-0.01,0.01-0.01c0,0,0.01-0.01,0.01-0.01c0,0,0.01-0.01,0.01-0.01
				c0-0.01,0-0.01,0.01-0.01c0,0,0.01,0,0.01-0.01c0,0,0.01,0,0.01-0.01c0.01,0,0.01,0,0.02,0c0,0,0,0,0.01,0c0,0,0,0,0.01,0
				c0.01,0,0.01,0,0.02,0c0.01,0,0.01,0,0.01,0c0,0,0.01,0,0.02,0c0,0,0.01,0,0.01,0c0.01,0,0.01,0.01,0.02,0.01
				c0.01,0,0.01,0,0.02,0c0,0,0,0,0,0c0,0,0.01,0,0.01,0c0.01,0,0.01,0.01,0.01,0.01c0,0,0.01,0.01,0.01,0.01c0,0,0.01,0,0.01,0.01
				c0,0,0,0.01,0.01,0.01c0,0,0,0.01,0.01,0.02c0,0,0,0.01,0.01,0.01c0,0,0,0.01,0.01,0.02c0,0.01,0,0.01,0.01,0.01
				c0,0,0,0.01,0,0.01l0.27,1.13l0.03-0.01C63.18,273.83,63.26,273.88,63.28,273.96z M62.62,273.24l-0.35,0.83l0.52-0.14
				L62.62,273.24z"/>
		</g>
		<g>
			<path class="st6" d="M69.84,271.45c0.16,0.1,0.26,0.26,0.31,0.44c0.04,0.18,0.02,0.37-0.07,0.54c-0.09,0.17-0.24,0.28-0.41,0.33
				c-0.01,0-0.01,0-0.01,0c-0.16,0.04-0.35,0.02-0.5-0.08c-0.07-0.04-0.1-0.14-0.05-0.22c0.04-0.08,0.14-0.1,0.21-0.06
				c0.09,0.06,0.18,0.07,0.28,0.04c0.09-0.02,0.17-0.09,0.22-0.18c0.05-0.09,0.06-0.2,0.04-0.29c-0.02-0.1-0.08-0.19-0.17-0.24
				c-0.09-0.06-0.18-0.07-0.27-0.04c-0.09,0.02-0.17,0.08-0.22,0.18c-0.04,0.08-0.14,0.1-0.21,0.06c-0.01-0.01-0.02-0.02-0.04-0.03
				c0-0.01,0-0.01,0-0.01c0-0.01-0.01-0.01-0.01-0.01c0-0.01-0.01-0.01-0.01-0.02c0,0,0,0,0,0c-0.01-0.02-0.01-0.03-0.01-0.05
				l-0.09-0.74c0-0.05,0.01-0.1,0.04-0.13c0,0,0.01,0,0.01-0.01c0,0,0,0,0.01-0.01c0.02-0.02,0.04-0.03,0.06-0.04l0.77-0.21
				c0.08-0.02,0.16,0.03,0.19,0.12c0.02,0.08-0.03,0.17-0.11,0.2l-0.64,0.18l0.03,0.29c0.05-0.03,0.11-0.06,0.17-0.07
				C69.5,271.33,69.69,271.35,69.84,271.45z"/>
		</g>
		<g>
			<path class="st6" d="M77.3,269.95c0.09,0.37-0.12,0.75-0.47,0.85c-0.33,0.09-0.66-0.1-0.77-0.43c0,0,0,0,0,0
				c-0.02-0.05-0.03-0.1-0.04-0.16c-0.04-0.19-0.07-0.4-0.05-0.6c0.02-0.2,0.09-0.41,0.22-0.57c0.09-0.11,0.21-0.19,0.36-0.24
				c0.08-0.02,0.16,0.02,0.19,0.11c0.02,0.08-0.02,0.17-0.1,0.2c-0.1,0.03-0.17,0.08-0.23,0.15c-0.05,0.07-0.09,0.14-0.12,0.24
				c-0.01,0.03-0.01,0.05-0.02,0.08c0.07-0.06,0.15-0.1,0.24-0.12C76.86,269.35,77.21,269.58,77.3,269.95z M77.01,270.03
				c-0.05-0.2-0.24-0.33-0.43-0.27c-0.19,0.05-0.3,0.26-0.25,0.46c0.05,0.2,0.24,0.32,0.43,0.27
				C76.95,270.44,77.06,270.24,77.01,270.03z"/>
		</g>
		<g>
			<path class="st1" d="M83.24,268.15c-0.08,0.02-0.15-0.03-0.17-0.11c-0.02-0.08,0.03-0.16,0.1-0.18l1.05-0.29
				c0.08-0.02,0.15,0.03,0.17,0.11c0.02,0.08-0.03,0.16-0.1,0.18L83.24,268.15z M83.77,267.22l0,0.01c0.02,0.1-0.04,0.21-0.13,0.24
				c-0.1,0.03-0.2-0.03-0.22-0.14l0-0.01c-0.02-0.1,0.04-0.21,0.14-0.23C83.65,267.06,83.75,267.12,83.77,267.22z M84.05,268.39
				l0,0.01c0.02,0.1-0.04,0.21-0.14,0.23c-0.1,0.03-0.2-0.03-0.22-0.14l0-0.01c-0.02-0.1,0.04-0.21,0.13-0.24
				C83.92,268.22,84.02,268.29,84.05,268.39z"/>
		</g>
		<g>
			<path class="st6" d="M64.38,280.49l0.39,1.65c0.02,0.09-0.03,0.17-0.11,0.19c-0.08,0.02-0.16-0.03-0.18-0.11l-0.33-1.37
				l-0.09,0.09c-0.02,0.02-0.04,0.04-0.07,0.04c-0.05,0.01-0.1,0-0.14-0.04c-0.06-0.06-0.06-0.16,0-0.22l0.27-0.29
				c0,0,0.01-0.01,0.01-0.01c0.01,0,0.01-0.01,0.01-0.01c0.01,0,0.01-0.01,0.01-0.01c0,0,0.01-0.01,0.01-0.01
				c0,0,0.01-0.01,0.02-0.01c0,0,0.01,0,0.01,0l0,0c0.01,0,0.01,0,0.02-0.01c0,0,0.01,0,0.01,0c0.01,0,0.01,0,0.02,0
				c0,0,0.01,0,0.01,0c0.01,0,0.01,0.01,0.02,0c0,0,0.01,0,0.01,0.01c0,0,0.01,0,0.01,0.01c0.01,0,0.01,0.01,0.01,0.01
				c0,0,0.01,0,0.01,0.01c0,0,0.01,0.01,0.01,0.01l0,0c0,0,0,0,0,0.01c0,0,0.01,0.01,0.01,0.01c0,0,0.01,0.01,0.01,0.01
				c0,0.01,0.01,0.01,0.01,0.01C64.37,280.47,64.37,280.48,64.38,280.49C64.38,280.48,64.38,280.49,64.38,280.49z"/>
		</g>
		<g>
			<path class="st6" d="M72.15,280.11c0.02,0.09-0.03,0.17-0.11,0.19l-0.92,0.25c0,0,0,0,0,0l0,0c-0.04,0.01-0.08,0.01-0.12-0.02
				c-0.07-0.05-0.09-0.15-0.04-0.22l0.59-0.96c0.06-0.09,0.07-0.2,0.05-0.3c-0.02-0.09-0.07-0.17-0.14-0.22
				c-0.09-0.06-0.19-0.07-0.28-0.05c-0.08,0.02-0.15,0.07-0.2,0.15l-0.06,0.1c-0.05,0.08-0.14,0.09-0.21,0.04
				c-0.07-0.05-0.09-0.15-0.04-0.22l0.06-0.1c0.09-0.15,0.23-0.25,0.38-0.29c0.17-0.05,0.36-0.02,0.52,0.09
				c0.14,0.1,0.23,0.25,0.27,0.41c0.04,0.18,0.02,0.39-0.09,0.55l-0.38,0.61l0.55-0.15C72.05,279.97,72.13,280.03,72.15,280.11z"/>
		</g>
		<g>
			<path class="st6" d="M78.77,277.2c0.16,0.1,0.26,0.26,0.31,0.44c0.04,0.18,0.02,0.37-0.07,0.54c-0.09,0.17-0.24,0.28-0.41,0.33
				c-0.16,0.04-0.35,0.02-0.5-0.08c-0.07-0.05-0.1-0.15-0.05-0.22c0.04-0.08,0.14-0.1,0.21-0.06c0.08,0.05,0.18,0.07,0.27,0.04
				c0.09-0.03,0.17-0.09,0.22-0.18c0.05-0.09,0.06-0.2,0.04-0.3c-0.02-0.1-0.08-0.18-0.17-0.24c-0.09-0.06-0.18-0.07-0.27-0.04
				c-0.04,0.01-0.08,0.01-0.12-0.02c0,0,0,0,0,0c-0.07-0.05-0.1-0.14-0.06-0.22l0.2-0.36l-0.42,0.12c-0.08,0.02-0.16-0.03-0.18-0.12
				c-0.02-0.09,0.03-0.17,0.11-0.2l0.77-0.21c0.08-0.02,0.16,0.03,0.19,0.12c0.01,0.03,0,0.06,0,0.08c0,0.02-0.01,0.03-0.02,0.05
				l-0.24,0.45C78.63,277.13,78.71,277.15,78.77,277.2z"/>
		</g>
		<g>
			<path class="st1" d="M85.94,275.27l-0.2,0.54l0.42,0.38c0.06,0.05,0.07,0.15,0.02,0.21c-0.02,0.03-0.05,0.05-0.08,0.05
				c-0.04,0.01-0.09,0-0.13-0.03l-0.35-0.31l-0.17,0.45c-0.02,0.04-0.05,0.08-0.09,0.09c-0.03,0.01-0.06,0.01-0.09-0.01
				c-0.07-0.03-0.11-0.12-0.08-0.19l0.2-0.55l-0.42-0.37c-0.06-0.05-0.07-0.14-0.02-0.21c0.05-0.06,0.14-0.07,0.2-0.02l0.35,0.3
				l0.17-0.45c0.03-0.08,0.11-0.11,0.19-0.08C85.93,275.11,85.97,275.2,85.94,275.27z"/>
		</g>
		<g>
			<path class="st6" d="M66.38,289.63c0.11-0.03,0.22,0.04,0.24,0.16c0.03,0.11-0.04,0.23-0.15,0.26c-0.11,0.03-0.21-0.04-0.24-0.15
				C66.21,289.78,66.27,289.66,66.38,289.63z"/>
		</g>
		<g>
			<path class="st6" d="M72.46,287.35c-0.06-0.26-0.05-0.51,0.02-0.72c0.07-0.21,0.2-0.39,0.41-0.44c0.2-0.05,0.4,0.03,0.55,0.18
				c0.15,0.15,0.27,0.36,0.33,0.62c0.06,0.25,0.05,0.51-0.02,0.72c-0.07,0.21-0.21,0.39-0.41,0.44c-0.21,0.06-0.41-0.03-0.56-0.18
				C72.64,287.82,72.52,287.6,72.46,287.35z M73.48,287.07c-0.05-0.2-0.14-0.36-0.24-0.46c-0.1-0.1-0.2-0.13-0.28-0.1
				c-0.08,0.02-0.16,0.1-0.21,0.24c-0.04,0.14-0.05,0.33-0.01,0.53c0.05,0.2,0.14,0.36,0.24,0.46c0.11,0.1,0.21,0.13,0.29,0.11
				c0.08-0.02,0.15-0.1,0.2-0.24C73.52,287.46,73.53,287.26,73.48,287.07z"/>
		</g>
		<g>
			<path class="st1" d="M79.69,285.14c-0.02-0.09,0.03-0.18,0.12-0.2l0.8-0.22c0.09-0.02,0.17,0.03,0.19,0.12
				c0.02,0.09-0.03,0.18-0.11,0.2l-0.8,0.22C79.8,285.29,79.71,285.24,79.69,285.14z M79.81,285.66c-0.02-0.09,0.03-0.18,0.12-0.21
				l0.8-0.22c0.09-0.02,0.17,0.03,0.19,0.12c0.02,0.09-0.02,0.18-0.11,0.21l-0.8,0.22C79.92,285.81,79.83,285.75,79.81,285.66z"/>
		</g>
		<g>
			<path class="st1" d="M87.28,283.44l-0.37,0.1c-0.08,0.02-0.16-0.03-0.18-0.11c-0.02-0.08,0.03-0.17,0.11-0.19l0.37-0.1
				l-0.09-0.39c-0.02-0.09,0.03-0.18,0.11-0.2c0.08-0.02,0.16,0.03,0.19,0.12l0.09,0.39l0.37-0.1c0.08-0.02,0.16,0.03,0.18,0.11
				c0.02,0.09-0.03,0.17-0.11,0.19l-0.37,0.1l0.09,0.39c0.02,0.09-0.03,0.18-0.11,0.2c-0.08,0.02-0.16-0.03-0.19-0.12L87.28,283.44z
				"/>
		</g>
		<g>
			<path class="st1" d="M66.57,255.23c0.02,0.07-0.02,0.13-0.08,0.15l-0.33,0.09c-0.04,0.44-0.13,1.6-0.14,1.92
				c0,0.05-0.02,0.08-0.03,0.11c-0.02,0.03-0.04,0.05-0.07,0.05c-0.04,0.01-0.08,0-0.12-0.02c0,0-0.43-0.27-0.57-0.37
				c-0.2-0.14-0.15-0.25-0.13-0.27c0.02-0.02,0.04-0.03,0.06-0.04c0.03-0.01,0.07,0,0.11,0.01c0.05,0.04,0.1,0.07,0.14,0.09
				c0.04,0.03,0.08,0.05,0.12,0.08c0.04,0.02,0.08,0.05,0.11,0.07c0.04,0.02,0.08,0.05,0.12,0.08c0.01-0.3,0.12-1.52,0.15-1.82l0,0
				c0.01-0.02,0.01-0.03,0.02-0.05c0.01-0.03,0.04-0.06,0.07-0.06l0.43-0.12C66.5,255.12,66.56,255.16,66.57,255.23z"/>
		</g>
	</g>
</g>
<g>
	<path class="st7" d="M179.18,272.56c-0.04-0.01-0.07-0.01-0.09-0.01C179.28,272.58,179.18,272.56,179.18,272.56z"/>
	<path class="st7" d="M166.72,285.65l-0.18-0.09C166.64,285.78,166.66,285.66,166.72,285.65z"/>
	<path class="st7" d="M174.22,271.67l0.04-0.01C174.26,271.66,174.24,271.66,174.22,271.67z"/>
	<path class="st7" d="M179.63,271.21c-0.05,0-0.14-0.01-0.22,0C179.45,271.2,179.51,271.2,179.63,271.21"/>
	<path class="st7" d="M167.1,277.81c0.01-0.01,0.01-0.01,0.02-0.02C167.14,277.68,167.12,277.73,167.1,277.81z"/>
	<path class="st7" d="M168.37,277.09c-0.02,0.01-0.04,0.03-0.06,0.05C168.36,276.99,168.36,277.04,168.37,277.09z"/>
	<path class="st7" d="M166.76,285.67l0-0.01c-0.01,0-0.02,0-0.03,0L166.76,285.67z"/>
	<polygon class="st7" points="169.9,289.28 169.95,289.32 169.98,289.12 	"/>
	<path class="st7" d="M167.62,287.47c0.07,0.1,0.19,0.18,0.25,0.28C167.68,287.57,167.78,287.33,167.62,287.47z"/>
	<path class="st6" d="M112.08,398.36c-0.02,0.03-0.04,0.05-0.06,0.08c0,0-0.01,0.01-0.01,0.02c0,0.03,0.03,0.06,0.06,0.05l0,0
		c0.01,0,0.01-0.01,0.01-0.01c0.03-0.03,0.06-0.06,0.09-0.1c0.71-0.78,1.35-1.63,2.02-2.44c0.71-0.87,1.42-1.73,2.12-2.6
		c0.97-1.19,1.92-2.39,2.88-3.59c-0.02-0.02-0.04-0.03-0.06-0.05c-0.97,1.17-1.94,2.34-2.9,3.51c-0.71,0.87-1.41,1.74-2.12,2.61
		C113.44,396.66,112.71,397.49,112.08,398.36z"/>
	<path class="st6" d="M112.09,398.49c0,0.01-0.01,0.01-0.01,0.02l0,0c-0.01,0.03,0.02,0.06,0.05,0.05c0,0,0.01,0,0.02-0.01
		c0.03-0.03,0.07-0.05,0.1-0.08c0.86-0.66,1.66-1.4,2.48-2.1c0.87-0.75,1.74-1.49,2.6-2.24c1.07-0.92,2.13-1.86,3.19-2.79
		c-0.01-0.03-0.03-0.05-0.04-0.07c-1.07,0.91-2.15,1.81-3.21,2.72c-0.87,0.75-1.73,1.49-2.6,2.24c-0.83,0.71-1.69,1.41-2.47,2.16
		c0,0-0.01,0,0,0.01C112.15,398.42,112.12,398.46,112.09,398.49z"/>
	<path class="st6" d="M112.15,398.54c-0.01,0-0.01,0.01-0.01,0.02c-0.01,0.02,0.01,0.06,0.04,0.06c0.01,0,0.01,0,0.02,0
		c0.04-0.02,0.09-0.05,0.13-0.07c0.97-0.52,1.89-1.12,2.84-1.68c1-0.6,2-1.2,3-1.81c1-0.6,1.98-1.21,2.97-1.82
		c0-0.04-0.01-0.07-0.01-0.11c-1,0.59-2,1.18-2.99,1.77c-1,0.6-2,1.21-3,1.81c-0.96,0.58-1.96,1.13-2.88,1.76
		C112.21,398.49,112.18,398.52,112.15,398.54z"/>
	<path class="st6" d="M112.17,398.61c-0.02,0.02,0,0.06,0.03,0.07l0,0c0,0,0.01,0,0.02,0c0.04-0.01,0.08-0.03,0.12-0.04
		c1.07-0.36,2.1-0.81,3.14-1.23c1.1-0.44,2.21-0.88,3.31-1.32c0.73-0.29,1.46-0.59,2.19-0.89c0.01-0.05,0.03-0.09,0.04-0.14
		c-0.75,0.29-1.49,0.58-2.23,0.87c-1.1,0.44-2.2,0.88-3.31,1.32c-1.05,0.42-2.14,0.81-3.16,1.28c-0.04,0.02-0.09,0.04-0.13,0.06
		C112.18,398.6,112.18,398.61,112.17,398.61z"/>
	<path class="st6" d="M112.2,398.68c-0.02,0.02-0.01,0.06,0.02,0.07c0.01,0,0.01,0,0.02,0c0.05-0.01,0.1-0.02,0.16-0.03
		c1.11-0.19,2.21-0.47,3.3-0.72c1.18-0.26,2.35-0.52,3.52-0.79c1.01-0.23,2.02-0.46,3.03-0.7c-0.04-0.03-0.08-0.05-0.11-0.08
		c-0.96,0.21-1.93,0.42-2.88,0.63c-1.18,0.26-2.35,0.53-3.52,0.79c-1.13,0.26-2.28,0.47-3.39,0.79c-0.04,0.01-0.08,0.02-0.12,0.03
		C112.22,398.67,112.21,398.67,112.2,398.68L112.2,398.68z"/>
	<path class="st6" d="M112.22,398.74c-0.03,0.02-0.03,0.06,0,0.07c0,0,0,0,0,0c0,0,0.01,0.01,0.02,0.01c0.06,0,0.11,0,0.17,0
		c1.13-0.02,2.26-0.13,3.38-0.2c1.21-0.08,2.41-0.16,3.62-0.24c1.46-0.1,2.92-0.21,4.38-0.32c-0.02-0.03-0.04-0.05-0.06-0.08
		c-1.42,0.08-2.84,0.16-4.27,0.25c-1.21,0.08-2.41,0.16-3.62,0.24c-1.15,0.08-2.31,0.12-3.46,0.25c-0.05,0-0.1,0.01-0.16,0.02
		C112.23,398.74,112.23,398.74,112.22,398.74z"/>
	<path class="st6" d="M112.22,398.81C112.22,398.81,112.22,398.81,112.22,398.81c-0.03,0.02-0.03,0.05-0.01,0.07
		c0,0,0.01,0.01,0.01,0.01c0.05,0.01,0.09,0.01,0.14,0.02c1.12,0.16,2.27,0.22,3.41,0.32c1.2,0.11,2.41,0.22,3.61,0.32
		c1.7,0.15,3.41,0.28,5.11,0.42c0-0.02,0-0.05,0-0.07c-1.67-0.16-3.35-0.33-5.02-0.48c-1.2-0.11-2.41-0.21-3.61-0.32
		c-1.14-0.1-2.29-0.24-3.44-0.29c-0.06,0-0.11,0-0.17-0.01C112.24,398.81,112.23,398.81,112.22,398.81z"/>
	<path class="st6" d="M112.19,398.95c0,0,0.01,0.01,0.01,0.01c0.05,0.01,0.09,0.03,0.14,0.04c1.07,0.33,2.19,0.57,3.29,0.84
		c1.17,0.29,2.33,0.58,3.49,0.87c1.64,0.41,3.29,0.8,4.94,1.19c0.01-0.02,0.02-0.04,0.03-0.06c-1.62-0.42-3.24-0.84-4.86-1.25
		c-1.17-0.29-2.33-0.58-3.49-0.87c-1.12-0.28-2.23-0.59-3.37-0.82l0,0c-0.04-0.01-0.09-0.02-0.13-0.03c-0.01,0-0.02,0-0.02,0
		C112.18,398.89,112.17,398.93,112.19,398.95z"/>
	<path class="st6" d="M99.06,401.67c1.75-0.38,3.5-0.75,5.24-1.14c1.17-0.26,2.35-0.53,3.52-0.79c1.11-0.25,2.25-0.47,3.35-0.77
		c0.01,0,0.01,0,0.01,0c0.05-0.01,0.1-0.03,0.15-0.04c0.01,0,0.01-0.01,0.02-0.01c0.02-0.02,0.01-0.06-0.02-0.07c0,0-0.01,0-0.02,0
		c-0.05,0.01-0.1,0.02-0.15,0.03c0,0-0.01,0-0.01,0c-1.11,0.19-2.21,0.48-3.31,0.72c-1.17,0.26-2.34,0.53-3.52,0.79
		c-1.76,0.4-3.53,0.82-5.29,1.23"/>
	<path class="st6" d="M99.04,399.66c1.68-0.1,3.36-0.19,5.03-0.3c1.21-0.08,2.41-0.16,3.62-0.24c1.15-0.08,2.32-0.12,3.46-0.25
		c0.05,0,0.1-0.01,0.16-0.02c0.01,0,0.02,0,0.02-0.01c0.03-0.02,0.02-0.06,0-0.07c0,0-0.01-0.01-0.02,0c-0.05,0-0.1,0-0.15,0
		c-1.13,0.02-2.28,0.13-3.41,0.21c-1.21,0.08-2.41,0.16-3.62,0.24c-1.69,0.11-3.38,0.24-5.07,0.37"/>
	<path class="st6" d="M99.91,397.77c1.39,0.14,2.78,0.27,4.17,0.4c1.2,0.11,2.41,0.21,3.61,0.32c1.15,0.1,2.31,0.24,3.46,0.28
		c0.05,0,0.1,0.01,0.15,0.01c0.01,0,0.02,0,0.02,0c0.03-0.01,0.04-0.05,0.01-0.07c0,0,0,0,0,0c0,0-0.01-0.01-0.01-0.01
		c-0.05-0.01-0.1-0.01-0.15-0.02c-1.12-0.15-2.27-0.22-3.39-0.32c-1.2-0.11-2.41-0.21-3.61-0.32c-1.4-0.12-2.8-0.23-4.2-0.35"/>
	<path class="st6" d="M101.16,396.19c1.05,0.27,2.11,0.54,3.16,0.81c1.16,0.29,2.33,0.58,3.49,0.87c1.11,0.28,2.23,0.59,3.35,0.81
		c0.05,0.01,0.1,0.02,0.15,0.03c0.01,0,0.01,0,0.02,0c0,0,0,0,0,0c0.03-0.01,0.05-0.05,0.02-0.07c0,0-0.01-0.01-0.01-0.01
		c-0.03-0.01-0.07-0.02-0.1-0.03c-1.08-0.33-2.21-0.58-3.32-0.85c-1.17-0.29-2.33-0.58-3.49-0.87c-1.1-0.27-2.19-0.53-3.29-0.8"/>
	<path class="st6" d="M101.12,394.29c1.22,0.53,2.44,1.07,3.66,1.59c1.09,0.47,2.18,0.93,3.27,1.39c1.05,0.45,2.1,0.93,3.18,1.33
		c0.03,0.01,0.06,0.02,0.1,0.04c0.01,0,0.01,0,0.02,0c0.03,0,0.06-0.04,0.04-0.06c0,0-0.01-0.01-0.01-0.01
		c-0.03-0.02-0.07-0.03-0.1-0.05c-1-0.49-2.06-0.91-3.1-1.35c-1.09-0.47-2.18-0.93-3.27-1.39c-1.26-0.53-2.52-1.06-3.78-1.58"/>
	<path class="st6" d="M101.75,392.45c1.24,0.8,2.47,1.61,3.72,2.4c0.98,0.63,1.96,1.25,2.95,1.87c0.95,0.6,1.88,1.24,2.87,1.8
		c0.03,0.02,0.06,0.04,0.09,0.05c0,0,0.01,0,0.02,0.01c0.03,0,0.06-0.03,0.05-0.06l0,0c0,0-0.01-0.01-0.01-0.01
		c-0.04-0.03-0.07-0.05-0.11-0.08c-0.89-0.63-1.84-1.2-2.77-1.78c-0.98-0.63-1.96-1.25-2.94-1.87c-1.27-0.8-2.55-1.6-3.83-2.4"/>
	<path class="st6" d="M102.99,390.86c1.11,1.03,2.22,2.06,3.35,3.08c0.84,0.77,1.69,1.53,2.53,2.3c0.81,0.73,1.6,1.5,2.45,2.19
		c0.03,0.03,0.07,0.06,0.1,0.08c0.01,0,0.01,0.01,0.02,0.01l0,0c0.03,0.01,0.06-0.02,0.06-0.05c0,0,0-0.01-0.01-0.01
		c-0.03-0.03-0.06-0.06-0.09-0.09c-0.75-0.76-1.58-1.47-2.38-2.19c-0.85-0.77-1.69-1.54-2.53-2.3c-1.14-1.03-2.3-2.06-3.45-3.08"/>
	<path class="st6" d="M104.78,389.77c0.86,1.14,1.72,2.28,2.59,3.41c0.68,0.88,1.36,1.77,2.04,2.65c0.66,0.85,1.28,1.73,1.99,2.54
		c0.03,0.03,0.05,0.06,0.08,0.09c0.01,0.01,0.01,0.01,0.02,0.01c0.03,0.01,0.07-0.01,0.06-0.04l0,0c0-0.01,0-0.01,0-0.02
		c-0.03-0.04-0.05-0.08-0.08-0.11c-0.59-0.86-1.27-1.68-1.9-2.51c-0.68-0.88-1.36-1.77-2.04-2.65c-0.88-1.14-1.78-2.28-2.67-3.41
		C104.84,389.75,104.81,389.76,104.78,389.77z"/>
	<path class="st6" d="M109.24,390.17c0.18,0.68,0.37,1.35,0.57,2.02c0.29,1.04,0.6,2.07,0.9,3.11c0.29,1,0.54,2.01,0.89,2.99
		c0.01,0.04,0.02,0.07,0.04,0.1c0,0.01,0.01,0.01,0.01,0.02l0,0c0.02,0.02,0.07,0.01,0.08-0.02c0,0,0-0.01,0-0.01
		c-0.01-0.05-0.02-0.09-0.03-0.14c-0.22-0.98-0.54-1.95-0.82-2.92c-0.3-1.04-0.59-2.07-0.89-3.11c-0.19-0.66-0.39-1.32-0.58-1.98
		C109.35,390.21,109.29,390.19,109.24,390.17z"/>
	<path class="st6" d="M111.01,390.4c0.04,0.53,0.08,1.06,0.13,1.59c0.09,1.07,0.18,2.13,0.27,3.2c0.09,1.02,0.13,2.05,0.28,3.06
		c0,0.05,0.01,0.09,0.02,0.14c0,0.01,0,0.01,0.01,0.02c0.02,0.02,0.06,0.02,0.08,0c0,0,0,0,0,0c0.01,0,0.01-0.01,0.01-0.02
		c0-0.05,0-0.1,0-0.15c-0.02-1-0.15-2-0.23-2.99c-0.09-1.07-0.18-2.13-0.27-3.2c-0.05-0.58-0.1-1.17-0.16-1.75
		C111.1,390.33,111.05,390.37,111.01,390.4z"/>
	<path class="st6" d="M112.83,389.18c-0.12,0.94-0.23,1.88-0.34,2.81c-0.12,1.07-0.24,2.13-0.36,3.19
		c-0.11,1.01-0.27,2.03-0.32,3.04c0,0.05,0,0.1-0.01,0.15c0,0.01,0,0.01,0.01,0.02c0,0,0,0,0,0c0.01,0.02,0.06,0.03,0.08,0.01
		c0,0,0.01-0.01,0.01-0.01c0.01-0.04,0.02-0.08,0.02-0.12c0.18-1,0.25-2.01,0.37-3.01c0.12-1.06,0.24-2.13,0.36-3.19
		c0.11-0.98,0.21-1.96,0.31-2.95C112.9,389.14,112.86,389.16,112.83,389.18z"/>
	<path class="st6" d="M115.02,388.53c-0.41,1.22-0.81,2.45-1.21,3.68c-0.33,1.03-0.66,2.06-0.98,3.09
		c-0.32,0.99-0.67,1.98-0.92,2.98c-0.01,0.04-0.02,0.08-0.03,0.12c0,0.01,0,0.01,0,0.02c0.01,0.03,0.05,0.04,0.08,0.02l0,0
		c0,0,0-0.01,0.01-0.01c0.01-0.03,0.02-0.06,0.04-0.09c0.38-0.96,0.65-1.96,0.96-2.94c0.33-1.03,0.66-2.06,0.99-3.09
		c0.4-1.26,0.78-2.52,1.17-3.79C115.08,388.52,115.05,388.52,115.02,388.53z"/>
	<path class="st6" d="M117.24,388.72c-0.72,1.3-1.45,2.59-2.17,3.9c-0.53,0.96-1.05,1.93-1.58,2.89c-0.51,0.93-1.06,1.86-1.5,2.82
		c-0.02,0.03-0.03,0.06-0.04,0.09c0,0,0,0.01,0,0.02l0,0c0,0.03,0.04,0.05,0.07,0.03c0.01,0,0.01-0.01,0.01-0.01
		c0.02-0.03,0.04-0.06,0.05-0.09c0.56-0.89,1.03-1.82,1.52-2.74c0.52-0.96,1.05-1.92,1.58-2.89c0.72-1.33,1.42-2.66,2.13-3.99
		C117.29,388.74,117.27,388.73,117.24,388.72z"/>
	<path class="st0" d="M113.98,398.26c-0.15-0.48-0.37-0.9-0.86-1.18c-0.47-0.27-1.05-0.35-1.59-0.3c-1.16,0.12-1.92,0.95-1.96,1.94
		c-0.02,0.46,0.22,1.1,0.6,1.43c1.27,1.09,3.01,0.47,3.56-0.36C114.02,399.34,114.14,398.75,113.98,398.26z"/>
	<path class="st8" d="M104.41,273.92v101.17c0.14,0.48,0.25,0.88,0.36,1.18c-0.1,14.23,7.18,21.03,14.08,21.32
		c0.22,0.01,0.44,0.01,0.66,0.01c3.52,0,6.33-1.23,8.26-2.57c1.1,0.28,2.45,0.48,4.05,0.48c1.79,0,3.66-0.26,5.56-0.77
		c3.77-1.02,6.64-3.29,8.17-4.74c3.17-0.41,9.7-1.86,16.03-7.03c7.23-5.9,8.61-15.7,8.87-19.23c8.26-9.3,5.69-17.97,2.1-22.73
		c1.71-3.52,1.14-7.33,0.11-10c1.03-2,1.29-4.08,0.74-6.13c-0.83-3.05-3.26-5.33-5.22-6.73c1.6-7.09-1.46-11.86-4.51-14.7
		c-1.6-1.49-3.34-2.57-4.78-3.31c1.26-7.72-3.59-12.11-7.38-14.02c-1-4.75-4.2-8.46-9.18-10.58c-2.42-1.02-4.76-1.48-6.35-1.68
		c-2.81-2.67-7.12-4.07-12.61-4.07c-1.17,0-2.18,0.07-2.96,0.14c-1.81-0.81-3.73-1.24-5.63-1.24
		C110.56,268.69,106.7,270.76,104.41,273.92z"/>
	<g>
		<path class="st8" d="M109.47,286.86c0,0-3.79-4.22-2.88-9.39c0.91-5.17,7.16-9.1,13.26-5.53c0,0,10.29-1.75,14.33,3.64
			c0,0,13.18,0.22,13.92,11.28c0,0,10.13,2.69,6.51,13.61c0,0,14.08,4.22,9.31,17.54c0,0,9.63,4.66,4.61,11.14
			c0,0,3.46,6.04-0.49,10.55c0,0,10.21,9.24-1.24,21.11c0,0-0.08,11.79-7.66,17.98c-7.58,6.19-15.32,6.26-15.32,6.26
			s-3.01,3.57-7.34,4.73c-6.14,1.65-9.38-0.51-9.38-0.51s-2.64,3.42-7.82,3.2c-5.19-0.22-10.54-6.55-10.29-18.34
			c0,0-4.69-11.57,3.87-22.12c0,0-9.06-10.12-1.48-21.47c0,0-3.29-1.89-3.79-6.91c-0.49-5.02,4.94-10.19,4.94-10.19
			s-2.8-7.13,0-11.43C112.52,302,105.76,296.83,109.47,286.86z"/>
		<path class="st9" d="M109.47,286.86c0,0-3.79-4.22-2.88-9.39c0.91-5.17,7.16-9.1,13.26-5.53c0,0,10.29-1.75,14.33,3.64
			c0,0,13.18,0.22,13.92,11.28c0,0,10.13,2.69,6.51,13.61c0,0,14.08,4.22,9.31,17.54c0,0,9.63,4.66,4.61,11.14
			c0,0,3.46,6.04-0.49,10.55c0,0,10.21,9.24-1.24,21.11c0,0-0.08,11.79-7.66,17.98c-7.58,6.19-15.32,6.26-15.32,6.26
			s-3.01,3.57-7.34,4.73c-6.14,1.65-9.38-0.51-9.38-0.51s-2.64,3.42-7.82,3.2c-5.19-0.22-10.54-6.55-10.29-18.34
			c0,0-4.69-11.57,3.87-22.12c0,0-9.06-10.12-1.48-21.47c0,0-3.29-1.89-3.79-6.91c-0.49-5.02,4.94-10.19,4.94-10.19
			s-2.8-7.13,0-11.43C112.52,302,105.76,296.83,109.47,286.86z"/>
		<path class="st10" d="M112.52,313.42c0,0-5.44,5.17-4.94,10.19c0.49,5.02,3.78,6.91,3.78,6.91c-7.57,11.36,1.48,21.47,1.48,21.47
			c-8.57,10.56-3.87,22.13-3.87,22.13c-0.25,11.79,5.11,18.12,10.3,18.34c5.19,0.22,7.82-3.2,7.82-3.2s3.24,2.16,9.37,0.51
			c4.33-1.16,7.34-4.73,7.34-4.73s7.74-0.07,15.32-6.26c4.03-3.29,5.94-8.15,6.84-11.99c-1.01,2.56-2.55,5.14-4.88,7.16
			c-7.08,6.11-14.5,6.37-14.5,6.37s-2.78,3.5-6.9,4.71c-5.84,1.73-9.01-0.27-9.01-0.27s-2.43,3.35-7.41,3.26
			c-4.99-0.09-10.31-6.03-10.44-17.35c0,0-4.86-10.99,3.04-21.32c0,0-9-9.49-2.07-20.57c0,0-3.22-1.73-3.85-6.54
			c-0.63-4.8,4.43-9.89,4.43-9.89s-2.9-6.78-0.35-10.97c0,0-6.64-4.8-3.39-14.45c0,0-3.76-3.96-3.05-8.94
			c0.71-4.98,6.6-8.9,12.55-5.62c0,0,9.82-1.92,13.86,3.15c0,0,0.05,0,0.13,0c-4.06-5.32-14.29-3.58-14.29-3.58
			c-6.09-3.57-12.35,0.36-13.26,5.53c-0.9,5.17,2.89,9.39,2.89,9.39c-3.71,9.97,3.05,15.14,3.05,15.14
			C109.72,306.29,112.52,313.42,112.52,313.42z"/>
	</g>
	<g>
		<path class="st8" d="M167.53,330.94c-3.09,1.47-6.71,0.7-9.48-0.94c-0.94-0.55-1.79-1.24-2.68-2c0.7,2.09,2.73,3.85,5.2,4.54
			C162.91,333.23,166.12,332.88,167.53,330.94L167.53,330.94z"/>
		<path class="st8" d="M107.99,375.91c5.82,4.58,12.65,4.02,17.51-1.33C118.51,378.35,115.6,378.62,107.99,375.91L107.99,375.91z"/>
		<path class="st8" d="M142.83,386.83c4.04-2.12,5.2-7.14,3.76-10.89C145.88,379.68,145.17,383.57,142.83,386.83L142.83,386.83z"/>
		<path class="st8" d="M167.04,341.49c-3.66,2.52-8.16,5.44-12.99,4.07c-0.39-0.11-0.83-0.31-1.19-0.47
			c-0.16-0.09-0.51-0.31-0.68-0.4c1.55,2.45,5.47,2.83,8.24,1.9C163.27,345.69,165.6,343.79,167.04,341.49L167.04,341.49z"/>
		<path class="st8" d="M147.11,288.65c-0.45,1.25-0.86,2.57-1.81,3.56l0.21,0.38c1.47,2.63,1.83,5.7,0.53,8.47
			c2.15-1.65,2.62-4.51,1.75-6.84c-0.29-0.79-0.66-1.52-1.22-2.24l-0.01,0.62C147.28,291.39,147.39,289.98,147.11,288.65
			L147.11,288.65z"/>
		<path class="st8" d="M153.61,302.26c-1.3,1.8-2.6,3.29-4.28,4.88C151.76,306.65,153.67,304.46,153.61,302.26L153.61,302.26z"/>
		<path class="st8" d="M133.19,277.37c0.91,2.56,2.16,4.98,3.05,7.57C136.73,282.2,135.31,279.34,133.19,277.37L133.19,277.37z"/>
		<path class="st8" d="M122.03,284.21c2.18-3.45,1.02-8.67-3.17-10.48c0.57,0.86,1.17,1.6,1.56,2.45
			C121.76,278.7,121.96,281.43,122.03,284.21L122.03,284.21z"/>
		<path class="st8" d="M114.62,292.64c-2.19-1.14-4.36-2.36-6.13-3.99C109.11,291.01,111.95,292.66,114.62,292.64L114.62,292.64z"/>
		<path class="st8" d="M111.53,303.79c0.98,1.37,2.71,2.28,4.53,2.44C114.88,305,113.3,304.17,111.53,303.79L111.53,303.79z"/>
		<path class="st8" d="M111.53,315.22c1.09,2.28,3.89,3.93,6.59,4.37c-0.93-0.71-2.3-1.56-3.29-2.21
			C113.83,316.74,112.5,315.89,111.53,315.22L111.53,315.22z"/>
		<path class="st8" d="M110.38,332.32c2.19,2.01,5.39,3.04,8.48,3.35C116.2,334.21,113.3,333.3,110.38,332.32L110.38,332.32z"/>
		<path class="st8" d="M158.53,330.74c-1.66,2.69-3.93,5.07-6.84,6.73c-5.62,3.17-13.5,2.94-18.52-1.12
			c-2.58-2.01-4.57-4.61-6.05-7.38c0.76,3.1,2.49,6.04,5,8.36c3.85,3.7,10.11,4.86,15.5,3.48
			C152.95,339.47,157.14,335.4,158.53,330.74L158.53,330.74z"/>
		<path class="st8" d="M142.19,328.87c4.42-5.11,4.48-12.92-0.42-17.8c-1.56-1.63-3.45-2.96-5.53-3.94
			c1.72,1.42,3.31,2.91,4.61,4.56C145,316.71,144.88,323.28,142.19,328.87L142.19,328.87z"/>
		<path class="st8" d="M156.58,312.09c-4.59-2.76-11.04-0.68-12.45,4.09c0.66-0.56,1.25-1.19,1.94-1.7
			C148.88,312.09,152.81,311.6,156.58,312.09L156.58,312.09z"/>
		<path class="st8" d="M132.45,290.11c-6.27,3.17-10.32,10.02-8,16.33c0.72,2.04,1.94,3.9,3.5,5.46c-1.04-1.86-1.9-3.76-2.37-5.71
			C124,300.11,127.6,294.26,132.45,290.11L132.45,290.11z"/>
		<path class="st8" d="M125.35,298.48c0.43-3.11-2.98-6.1-6.48-5.84c1.27,0.82,2.57,1.57,3.65,2.57
			C123.63,296.19,124.46,297.27,125.35,298.48L125.35,298.48z"/>
		<path class="st8" d="M123.31,365.43c-8.14-3.47-11.88-9.47-8.34-17.16c1.03-2.18,2.5-4.23,4.31-6.13
			c-1.81,0.99-3.33,2.38-4.59,3.9C108.32,353.95,112.39,363.62,123.31,365.43L123.31,365.43z"/>
		<path class="st8" d="M163.59,354.13c2.32,4.7,2.41,9.54-2.35,13.01c-1.38,1.04-2.99,1.88-4.66,2.71c4.27-0.68,8.68-3.2,9.66-7.2
			C167.08,359.67,165.8,356.38,163.59,354.13L163.59,354.13z"/>
		<path class="st8" d="M154.93,356.7c-6.59-2.94-15.4-2-19.88,3.52c-1.47,1.74-2.42,3.74-2.93,5.8c1.1-1.87,2.3-3.64,3.83-5.15
			C140.67,356.05,148.21,355.36,154.93,356.7L154.93,356.7z"/>
		<path class="st8" d="M138.72,357.91c1.88-4.87-0.63-11.45-6.6-12.93C136.8,348.17,138.3,352.9,138.72,357.91L138.72,357.91z"/>
		<path class="st8" d="M129.04,318.55c-7.41-3.12-14.84,1.05-15.24,8.23c0.69-1.4,1.42-2.75,2.34-3.94
			C118.97,318.95,124.06,317.97,129.04,318.55L129.04,318.55z"/>
		<path class="st8" d="M124.59,369.25c-2.1,7.48,3.99,12.72,12.27,9.6c-1.7,0.07-3.37,0.1-4.95-0.13
			C126.44,378.08,124.96,373.51,124.59,369.25L124.59,369.25z"/>
		<path class="st8" d="M126.11,391.05c-1.31-1.23-2.33-2.76-2.81-4.38l-1.03,0.65c0.97,0.58,1.98,0.89,3.11,1.01
			c2.21,0.25,4.42-0.63,5.85-2.1c0.69-0.69,1.21-1.49,1.62-2.32c-0.39,0.3-0.75,0.61-1.09,0.92c-2.51,2.05-5.58,2.99-8.74,1.5
			c0,0-1.61-0.79-1.61-0.79l0.58,1.44C122.75,388.74,124.16,390.29,126.11,391.05L126.11,391.05z"/>
	</g>
</g>
<path class="st0" d="M1.87,58.43c1.75-1.11,3.51-1.78,5.31-2.1c0.03,0.07,0.07,0.13,0.12,0.19l15.79,21.01
	c-0.52,0.85-1.14,1.65-1.88,2.37c-0.63,0.62-1.45,1.11-2.4,1.49L0,59.83C0.56,59.33,1.19,58.86,1.87,58.43z"/>
<g>
	<path class="st5" d="M395.42,80.44c0.43,0,0.78-0.35,0.78-0.78V64c0-0.43-0.35-0.78-0.78-0.78c-0.43,0-0.78,0.35-0.78,0.78v15.66
		C394.63,80.09,394.98,80.44,395.42,80.44z"/>
	<path class="st5" d="M395.42,81.27c0.89,0,1.61-0.72,1.61-1.61V64c0-0.89-0.72-1.61-1.61-1.61c-0.89,0-1.61,0.72-1.61,1.61v15.66
		C393.8,80.55,394.53,81.27,395.42,81.27z"/>
</g>
<g>
	<path class="st0" d="M71.43,394.44c-0.24,0-0.43-0.16-0.43-0.36v-5.65c0-0.2,0.19-0.36,0.43-0.36c0.24,0,0.43,0.16,0.43,0.36v5.65
		C71.86,394.28,71.67,394.44,71.43,394.44z"/>
	<path class="st0" d="M80.81,271.76"/>
	<path class="st0" d="M54.33,307.71c-0.03-0.02-0.07-0.04-0.1-0.05C54.27,307.67,54.3,307.69,54.33,307.71z"/>
	<path class="st6" d="M105.57,398.47c-1.76,0.11-3.51,0.24-5.27,0.37c-0.01,0.02-0.02,0.04-0.02,0.07c1.74-0.1,3.49-0.19,5.23-0.29"
		/>
	<path class="st6" d="M105.88,396.16c-1.14-0.27-2.28-0.53-3.42-0.79c0.01,0.04,0.01,0.07,0.02,0.11c1.09,0.27,2.19,0.54,3.28,0.8"
		/>
	<path class="st5" d="M33.41,362.66c0.27,3.49,2.81,13.18,10.31,19.01c6.57,5.11,13.36,6.55,16.65,6.95
		c1.59,1.43,4.56,3.68,8.48,4.69c1.98,0.51,3.93,0.76,5.78,0.76c1.67,0,3.07-0.2,4.21-0.48c2,1.33,4.92,2.54,8.57,2.54
		c0.23,0,0.46-0.01,0.69-0.01c7.16-0.29,14.72-7.01,14.62-21.08c0.11-0.3,0.24-0.7,0.37-1.18c0,0,0,0.01,0,0.01V273.86
		c0,0,0,0,0,0.01c-2.37-3.13-6.38-5.18-10.77-5.18c-1.98,0-3.98,0.43-5.85,1.23c-0.81-0.07-1.87-0.14-3.08-0.14
		c-5.7,0-10.17,1.38-13.09,4.02c-1.65,0.19-4.08,0.65-6.59,1.66c-5.18,2.09-8.5,5.77-9.54,10.46c-3.93,1.9-8.97,6.23-7.66,13.86
		c-1.5,0.74-3.3,1.8-4.97,3.28c-3.17,2.81-6.35,7.51-4.68,14.53c-2.03,1.38-4.56,3.63-5.42,6.65c-0.58,2.03-0.31,4.09,0.77,6.06
		c-1.07,2.64-1.65,6.4,0.12,9.88C28.6,344.9,24.83,353.47,33.41,362.66z"/>
	<g>
		<g>
			<path class="st5" d="M98.33,285.72c0,0,3.93-4.17,2.99-9.28c-0.94-5.11-7.44-8.99-13.77-5.47c0,0-10.69-1.73-14.88,3.6
				c0,0-13.68,0.22-14.45,11.15c0,0-10.52,2.66-6.76,13.45c0,0-14.63,4.17-9.66,17.34c0,0-10.01,4.6-4.79,11.01
				c0,0-3.59,5.97,0.51,10.43c-1.56,1.35-11.97,7.79,1.28,20.87c0,0,0.09,11.66,7.95,17.77c7.87,6.12,15.91,6.19,15.91,6.19
				s3.13,3.53,7.62,4.68c6.37,1.63,9.74-0.5,9.74-0.5s2.74,3.38,8.12,3.17c5.39-0.22,10.95-6.48,10.69-18.13
				c0,0,4.88-11.44-4.02-21.87c0,0,9.41-10,1.54-21.23c0,0,3.42-1.87,3.93-6.84c0.51-4.96-5.13-10.07-5.13-10.07s2.91-7.05,0-11.3
				C95.17,300.69,102.18,295.58,98.33,285.72z"/>
			<path class="st9" d="M98.33,285.72c0,0,3.93-4.17,2.99-9.28c-0.94-5.11-7.44-8.99-13.77-5.47c0,0-10.69-1.73-14.88,3.6
				c0,0-13.68,0.22-14.45,11.15c0,0-10.52,2.66-6.76,13.45c0,0-14.63,4.17-9.66,17.34c0,0-10.01,4.6-4.79,11.01
				c0,0-3.59,5.97,0.51,10.43c-1.56,1.35-11.97,7.79,1.28,20.87c0,0,0.09,11.66,7.95,17.77c7.87,6.12,15.91,6.19,15.91,6.19
				s3.13,3.53,7.62,4.68c6.37,1.63,9.74-0.5,9.74-0.5s2.74,3.38,8.12,3.17c5.39-0.22,10.95-6.48,10.69-18.13
				c0,0,4.88-11.44-4.02-21.87c0,0,9.41-10,1.54-21.23c0,0,3.42-1.87,3.93-6.84c0.51-4.96-5.13-10.07-5.13-10.07s2.91-7.05,0-11.3
				C95.17,300.69,102.18,295.58,98.33,285.72z"/>
			<g class="st11">
				<path class="st6" d="M88.4,270.76c0.62-0.36,1.24-0.64,1.86-0.86c-0.73,0.18-1.47,0.45-2.22,0.82
					C88.28,270.75,88.4,270.76,88.4,270.76z"/>
				<path class="st6" d="M38.81,358.83c0,0,0.09,11.66,7.95,17.77c7.87,6.12,15.91,6.19,15.91,6.19s3.13,3.53,7.63,4.68
					c6.37,1.63,9.74-0.51,9.74-0.51s2.74,3.38,8.13,3.17c3.63-0.15,7.34-3.03,9.29-8.46c-1.69,1.87-3.72,2.89-5.75,3
					c-5.15,0.3-7.84-2.89-7.84-2.89s-3.17,2.1-9.3,0.64c-4.32-1.03-7.39-4.35-7.39-4.35s-7.69,0.06-15.35-5.66
					c-7.66-5.72-8.01-16.86-8.01-16.86c-11.63-11.02-1.7-19.93-1.7-19.93c-4.03-4.2-0.73-9.97-0.73-9.97
					c-5.13-6.04,4.33-10.6,4.33-10.6c-5.04-12.51,8.84-16.73,8.84-16.73c-3.84-10.26,6.16-12.97,6.16-12.97
					c0.48-10.47,13.56-10.9,13.56-10.9c1.77-2.35,4.85-3.32,7.69-3.68c-3.25,0.2-7.12,1.08-9.26,3.81c0,0-13.69,0.21-14.46,11.15
					c0,0-10.52,2.66-6.75,13.46c0,0-14.63,4.17-9.66,17.34c0,0-10.01,4.6-4.79,11.01c0,0-3.59,5.97,0.52,10.43
					C35.96,339.31,25.56,345.75,38.81,358.83z"/>
				<path class="st9" d="M88.4,270.76c0.62-0.36,1.24-0.64,1.86-0.86c-0.73,0.18-1.47,0.45-2.22,0.82
					C88.28,270.75,88.4,270.76,88.4,270.76z"/>
				<path class="st10" d="M38.81,358.83c0,0,0.09,11.66,7.95,17.77c7.87,6.12,15.91,6.19,15.91,6.19s3.13,3.53,7.63,4.68
					c6.37,1.63,9.74-0.51,9.74-0.51s2.74,3.38,8.13,3.17c3.63-0.15,7.34-3.03,9.29-8.46c-1.69,1.87-3.72,2.89-5.75,3
					c-5.15,0.3-7.84-2.89-7.84-2.89s-3.17,2.1-9.3,0.64c-4.32-1.03-7.39-4.35-7.39-4.35s-7.69,0.06-15.35-5.66
					c-7.66-5.72-8.01-16.86-8.01-16.86c-11.63-11.02-1.7-19.93-1.7-19.93c-4.03-4.2-0.73-9.97-0.73-9.97
					c-5.13-6.04,4.33-10.6,4.33-10.6c-5.04-12.51,8.84-16.73,8.84-16.73c-3.84-10.26,6.16-12.97,6.16-12.97
					c0.48-10.47,13.56-10.9,13.56-10.9c1.77-2.35,4.85-3.32,7.69-3.68c-3.25,0.2-7.12,1.08-9.26,3.81c0,0-13.69,0.21-14.46,11.15
					c0,0-10.52,2.66-6.75,13.46c0,0-14.63,4.17-9.66,17.34c0,0-10.01,4.6-4.79,11.01c0,0-3.59,5.97,0.52,10.43
					C35.96,339.31,25.56,345.75,38.81,358.83z"/>
			</g>
		</g>
		<g>
			<path class="st5" d="M81.94,270.76c3.08-0.19,5.62,0.21,5.62,0.21c0.16-0.09,0.33-0.18,0.49-0.26
				C87.16,270.62,84.66,270.41,81.94,270.76z"/>
			<path class="st9" d="M81.94,270.76c3.08-0.19,5.62,0.21,5.62,0.21c0.16-0.09,0.33-0.18,0.49-0.26
				C87.16,270.62,84.66,270.41,81.94,270.76z"/>
		</g>
		<g>
			<path class="st5" d="M37.01,327.53c1.47,1.93,4.79,2.27,7.23,1.59c2.56-0.68,4.67-2.42,5.4-4.49c-0.92,0.75-1.81,1.43-2.78,1.98
				C43.98,328.22,40.23,328.98,37.01,327.53L37.01,327.53z"/>
			<path class="st5" d="M98.85,371.99c-7.91,2.68-10.93,2.4-18.19-1.32C85.71,375.97,92.81,376.52,98.85,371.99L98.85,371.99z"/>
			<path class="st5" d="M62.67,382.79c-2.43-3.22-3.17-7.07-3.91-10.77C57.27,375.72,58.47,380.69,62.67,382.79L62.67,382.79z"/>
			<path class="st5" d="M37.53,337.96c1.5,2.27,3.91,4.15,6.87,5.04c2.87,0.93,6.94,0.55,8.55-1.88c-0.18,0.09-0.54,0.3-0.7,0.39
				c-0.37,0.16-0.83,0.36-1.23,0.47C46,343.33,41.32,340.46,37.53,337.96L37.53,337.96z"/>
			<path class="st5" d="M58.22,285.72c-0.29,1.31-0.18,2.71,0.57,3.91c0,0-0.01-0.61-0.01-0.61c-0.58,0.71-0.97,1.43-1.27,2.21
				c-0.9,2.29-0.41,5.13,1.82,6.76c-1.35-2.73-0.98-5.77,0.55-8.37c0,0,0.22-0.38,0.22-0.38C59.11,288.26,58.69,286.96,58.22,285.72
				L58.22,285.72z"/>
			<path class="st5" d="M51.47,299.18c-0.06,2.17,1.92,4.34,4.45,4.82C54.17,302.43,52.82,300.96,51.47,299.18L51.47,299.18z"/>
			<path class="st5" d="M72.68,274.57c-2.2,1.95-3.67,4.77-3.16,7.48C70.44,279.5,71.73,277.1,72.68,274.57L72.68,274.57z"/>
			<path class="st5" d="M84.27,281.34c0.01-3.73,0.69-7.27,3.29-10.36C83.21,272.77,82,277.92,84.27,281.34L84.27,281.34z"/>
			<path class="st5" d="M91.96,289.67c2.78,0.02,5.72-1.61,6.37-3.94C96.49,287.33,94.24,288.54,91.96,289.67L91.96,289.67z"/>
			<path class="st5" d="M95.17,300.69c-1.83,0.38-3.48,1.2-4.7,2.41C92.36,302.95,94.15,302.04,95.17,300.69L95.17,300.69z"/>
			<path class="st5" d="M95.17,311.99c-1,0.66-2.39,1.51-3.43,2.14c-1.03,0.65-2.44,1.47-3.42,2.18
				C91.13,315.87,94.04,314.24,95.17,311.99L95.17,311.99z"/>
			<path class="st5" d="M96.37,328.89c-3.03,0.97-6.04,1.87-8.81,3.31C90.77,331.9,94.09,330.88,96.37,328.89L96.37,328.89z"/>
			<path class="st5" d="M46.36,327.33c1.45,4.61,5.8,8.64,11.33,9.95c5.6,1.37,12.1,0.22,16.1-3.44c2.61-2.29,4.41-5.19,5.19-8.26
				c-1.54,2.74-3.6,5.31-6.29,7.3c-5.21,4.01-13.4,4.24-19.24,1.11C50.44,332.34,48.08,329.99,46.36,327.33L46.36,327.33z"/>
			<path class="st5" d="M63.33,325.49c-2.79-5.53-2.91-12.02,1.4-16.98c1.35-1.63,3-3.1,4.79-4.51c-2.16,0.96-4.13,2.28-5.75,3.89
				C58.67,312.72,58.74,320.44,63.33,325.49L63.33,325.49z"/>
			<path class="st5" d="M48.39,308.89c3.91-0.48,8,0,10.92,2.36c0.71,0.51,1.32,1.13,2.01,1.68
				C59.85,308.22,53.15,306.16,48.39,308.89L48.39,308.89z"/>
			<path class="st5" d="M73.45,287.16c5.04,4.11,8.78,9.89,7.15,15.89c-0.49,1.93-1.38,3.81-2.47,5.65
				c1.62-1.54,2.88-3.38,3.63-5.39C84.16,297.07,79.96,290.3,73.45,287.16L73.45,287.16z"/>
			<path class="st5" d="M80.82,295.44c0.92-1.19,1.79-2.26,2.94-3.23c1.12-0.99,2.47-1.73,3.79-2.54
				C83.92,289.4,80.38,292.36,80.82,295.44L80.82,295.44z"/>
			<path class="st5" d="M82.94,361.63c11.35-1.8,15.56-11.35,8.96-19.16c-1.31-1.5-2.89-2.88-4.76-3.86
				c1.87,1.88,3.41,3.91,4.47,6.06C95.28,352.27,91.39,358.21,82.94,361.63L82.94,361.63z"/>
			<path class="st5" d="M41.1,350.46c-2.29,2.22-3.62,5.48-2.75,8.42c1.02,3.95,5.6,6.44,10.04,7.12c-1.73-0.82-3.4-1.65-4.84-2.68
				C38.6,359.89,38.69,355.1,41.1,350.46L41.1,350.46z"/>
			<path class="st5" d="M50.1,353c6.98-1.33,14.81-0.64,19.71,4.12c1.59,1.48,2.84,3.24,3.98,5.09c-0.53-2.03-1.52-4.01-3.05-5.73
				C66.09,351.02,56.94,350.09,50.1,353L50.1,353z"/>
			<path class="st5" d="M66.94,354.19c0.43-4.95,1.99-9.63,6.85-12.78C67.6,342.87,64.99,349.38,66.94,354.19L66.94,354.19z"/>
			<path class="st5" d="M76.99,315.28c5.17-0.58,10.45,0.4,13.4,4.25c0.96,1.18,1.72,2.5,2.43,3.89
				C92.4,316.32,84.68,312.2,76.99,315.28L76.99,315.28z"/>
			<path class="st5" d="M81.61,365.41c-0.39,4.21-1.93,8.72-7.6,9.37c-1.64,0.23-3.37,0.2-5.14,0.13
				C77.48,377.98,83.79,372.8,81.61,365.41L81.61,365.41z"/>
			<path class="st5" d="M80.03,386.96c2.02-0.75,3.49-2.28,4.27-4.02c0,0,0.6-1.43,0.6-1.43l-1.67,0.79
				c-3.28,1.47-6.47,0.54-9.07-1.48c-0.36-0.3-0.73-0.61-1.14-0.91c0.43,0.82,0.97,1.61,1.69,2.29c1.49,1.45,3.78,2.32,6.08,2.07
				c1.18-0.12,2.23-0.43,3.23-1c0,0-1.07-0.64-1.07-0.64C82.45,384.23,81.4,385.74,80.03,386.96L80.03,386.96z"/>
		</g>
	</g>
</g>
<g>
	<path class="st12" d="M224.36,358.1c-0.3-5.64-0.66-12.42-0.6-17.46h-0.18c-1.38,4.74-3.06,9.78-5.1,15.36l-7.14,19.62h-3.96
		l-6.54-19.26c-1.92-5.7-3.54-10.92-4.68-15.72h-0.12c-0.12,5.04-0.42,11.82-0.78,17.88l-1.08,17.34h-4.98l2.82-40.44h6.66
		l6.9,19.56c1.68,4.98,3.06,9.42,4.08,13.62h0.18c1.02-4.08,2.46-8.52,4.26-13.62l7.2-19.56h6.66l2.52,40.44h-5.1L224.36,358.1z"/>
	<path class="st12" d="M259.46,356.9h-15.72v14.58h17.52v4.38h-22.74v-40.44h21.84v4.38h-16.62v12.78h15.72V356.9z"/>
	<path class="st12" d="M302.12,358.1c-0.3-5.64-0.66-12.42-0.6-17.46h-0.18c-1.38,4.74-3.06,9.78-5.1,15.36l-7.14,19.62h-3.96
		l-6.54-19.26c-1.92-5.7-3.54-10.92-4.68-15.72h-0.12c-0.12,5.04-0.42,11.82-0.78,17.88l-1.08,17.34h-4.98l2.82-40.44h6.66
		l6.9,19.56c1.68,4.98,3.06,9.42,4.08,13.62h0.18c1.02-4.08,2.46-8.52,4.26-13.62l7.2-19.56h6.66l2.52,40.44h-5.1L302.12,358.1z"/>
	<path class="st12" d="M350.84,355.22c0,13.92-8.46,21.3-18.78,21.3c-10.68,0-18.18-8.28-18.18-20.52
		c0-12.84,7.98-21.24,18.78-21.24C343.7,334.76,350.84,343.22,350.84,355.22z M319.46,355.88c0,8.64,4.68,16.38,12.9,16.38
		c8.28,0,12.96-7.62,12.96-16.8c0-8.04-4.2-16.44-12.9-16.44C323.78,339.02,319.46,347,319.46,355.88z"/>
	<path class="st12" d="M357.62,335.96c2.64-0.54,6.42-0.84,10.02-0.84c5.58,0,9.18,1.02,11.7,3.3c2.04,1.8,3.18,4.56,3.18,7.68
		c0,5.34-3.36,8.88-7.62,10.32v0.18c3.12,1.08,4.98,3.96,5.94,8.16c1.32,5.64,2.28,9.54,3.12,11.1h-5.4
		c-0.66-1.14-1.56-4.62-2.7-9.66c-1.2-5.58-3.36-7.68-8.1-7.86h-4.92v17.52h-5.22V335.96z M362.84,354.38h5.34
		c5.58,0,9.12-3.06,9.12-7.68c0-5.22-3.78-7.5-9.3-7.56c-2.52,0-4.32,0.24-5.16,0.48V354.38z"/>
	<path class="st12" d="M395.12,335.42v40.44h-5.22v-40.44H395.12z"/>
	<path class="st12" d="M410.78,363.14l-4.2,12.72h-5.4l13.74-40.44h6.3l13.8,40.44h-5.58l-4.32-12.72H410.78z M424.04,359.06
		l-3.96-11.64c-0.9-2.64-1.5-5.04-2.1-7.38h-0.12c-0.6,2.4-1.26,4.86-2.04,7.32l-3.96,11.7H424.04z"/>
	<path class="st12" d="M460.22,363.14l-4.2,12.72h-5.4l13.74-40.44h6.3l13.8,40.44h-5.58l-4.32-12.72H460.22z M473.48,359.06
		l-3.96-11.64c-0.9-2.64-1.5-5.04-2.1-7.38h-0.12c-0.6,2.4-1.26,4.86-2.04,7.32l-3.96,11.7H473.48z"/>
	<path class="st12" d="M517.76,374.54c-1.92,0.96-5.76,1.92-10.68,1.92c-11.4,0-19.98-7.2-19.98-20.46
		c0-12.66,8.58-21.24,21.12-21.24c5.04,0,8.22,1.08,9.6,1.8l-1.26,4.26c-1.98-0.96-4.8-1.68-8.16-1.68
		c-9.48,0-15.78,6.06-15.78,16.68c0,9.9,5.7,16.26,15.54,16.26c3.18,0,6.42-0.66,8.52-1.68L517.76,374.54z"/>
	<path class="st12" d="M533.66,339.86h-12.3v-4.44h29.94v4.44h-12.36v36h-5.28V339.86z"/>
	<path class="st12" d="M561.02,335.42v40.44h-5.22v-40.44H561.02z"/>
	<path class="st12" d="M579.02,375.86l-13.2-40.44h5.64l6.3,19.92c1.74,5.46,3.24,10.38,4.32,15.12h0.12
		c1.14-4.68,2.82-9.78,4.62-15.06l6.84-19.98h5.58l-14.46,40.44H579.02z"/>
	<path class="st12" d="M606.74,363.14l-4.2,12.72h-5.4l13.74-40.44h6.3l13.8,40.44h-5.58l-4.32-12.72H606.74z M620,359.06
		l-3.96-11.64c-0.9-2.64-1.5-5.04-2.1-7.38h-0.12c-0.6,2.4-1.26,4.86-2.04,7.32l-3.96,11.7H620z"/>
</g>
<g>
	<path class="st8" d="M160.05,393.35l-1,0.21c-2.26-3.89-8.28-6.87-7.93-9.45c0.07-0.46,0.39-0.78,0.87-1.02
		c1.56-0.75,4.71-0.6,5.19-1.62c0.06-0.12,0.24-2.62,0.29-3.35l0.01-0.1c0-0.06,0.01-0.1,0.01-0.1l-0.01,0l-4.09-0.98
		c-9.59-7.67-28.15-14.14-33.7-8.12l-1.31,0.42l-0.01,0.01l-0.03,0.39c0,0.05-0.01,0.1-0.01,0.15l-0.17,2.46
		c-2.02,14.93,40.41,34.85,41.7,24.71l0.04-0.51l0.16-2.1l0.07-1L160.05,393.35z M145.6,375.75c1.81,0.7,3.16,2.47,3.02,3.95
		c-0.14,1.49-1.72,2.12-3.54,1.42c-1.81-0.7-3.16-2.47-3.02-3.95C142.21,375.68,143.79,375.05,145.6,375.75z"/>
	<path class="st8" d="M160.05,393.35c-0.39-4.26-6.08-7.48-8.06-10.26c-0.48-0.67-0.74-1.32-0.66-1.94
		c0.29-2.17,5.94-1.35,6.14-3.04c0.01-0.03,0.01-0.06,0.01-0.1c0-0.04,0-0.06-0.01-0.1c-0.04-0.32-0.25-0.74-0.7-1.25
		c-8.85-10.22-36.66-20.55-38.39-7.48l0,0.04c-0.02,0.13-0.03,0.26-0.04,0.4c0,0.05-0.01,0.1-0.01,0.15
		c-0.95,15.48,40.41,35.09,41.71,24.64c0-0.03,0.01-0.06,0.01-0.09l0.02-0.34C160.08,393.78,160.07,393.57,160.05,393.35z
		 M142.06,377.16c0.15-1.49,1.73-2.12,3.54-1.41c1.81,0.7,3.16,2.47,3.02,3.95c-0.14,1.49-1.72,2.12-3.54,1.42
		C143.27,380.42,141.92,378.64,142.06,377.16z"/>
	<path class="st13" d="M160.05,393.35c-0.39-4.26-6.08-7.48-8.06-10.26c-0.48-0.67-0.74-1.32-0.66-1.94
		c0.29-2.17,5.94-1.35,6.14-3.04c0.01-0.03,0.01-0.06,0.01-0.1c0-0.04,0-0.06-0.01-0.1c-0.04-0.32-0.25-0.74-0.7-1.25
		c-8.85-10.22-36.66-20.55-38.39-7.48l0,0.04c-0.02,0.13-0.03,0.26-0.04,0.4c0,0.05-0.01,0.1-0.01,0.15
		c-0.95,15.48,40.41,35.09,41.71,24.64c0-0.03,0.01-0.06,0.01-0.09l0.02-0.34C160.08,393.78,160.07,393.57,160.05,393.35z
		 M142.06,377.16c0.15-1.49,1.73-2.12,3.54-1.41c1.23,0.48,2.25,1.45,2.73,2.5c0.22,0.48,0.33,0.99,0.29,1.46
		c-0.14,1.49-1.72,2.12-3.54,1.42c-0.68-0.27-1.29-0.67-1.78-1.17C142.47,379.13,141.97,378.09,142.06,377.16z"/>
	<path class="st8" d="M148.33,378.25c-0.49-0.5-1.1-0.9-1.78-1.17c-1.81-0.7-3.39-0.07-3.54,1.41c-0.05,0.47,0.06,0.97,0.29,1.46
		c-0.83-0.82-1.33-1.86-1.24-2.79c0.15-1.49,1.73-2.12,3.54-1.41C146.84,376.23,147.85,377.2,148.33,378.25z"/>
	<path class="st6" d="M146.94,385.36c-0.61-0.07-1.24,0.1-1.74,0.76c-0.59,0.79-0.73,2.22-0.22,3.28c1.02,2.17,4.25,3.46,5.03,0.02
		C150.73,386.3,148.5,385.34,146.94,385.36z"/>
	<path class="st8" d="M138.84,386.32c0.06-0.01,0.12-0.03,0.19-0.06c0.22-0.04,0.42-0.12,0.61-0.27c0.21-0.17,0.38-0.42,0.51-0.71
		c0.1-0.21,0.18-0.44,0.19-0.71c0.09-0.66-0.01-1.4-0.38-2.05c-0.47-0.83-1.12-1.03-1.69-1.51c-0.83-0.7-1.31-2.03-2.23-2.33
		c-1.01-0.33-2.3,0.15-2.73,1.85C132.19,385.07,137.39,386.63,138.84,386.32z"/>
	<path class="st8" d="M137.41,369.06c0.68,2.88-1.38,3.87-2.37,3.59c-0.91-0.26-3.78-1.33-3.27-4.24c0.3-1.75,1.33-1.87,2.25-1.48
		C135.31,366.71,136.95,367.08,137.41,369.06z"/>
	<path class="st9" d="M137.41,369.06c0.68,2.88-1.38,3.87-2.37,3.59c-0.91-0.26-3.78-1.33-3.27-4.24c0.3-1.75,1.33-1.87,2.25-1.48
		C135.31,366.71,136.95,367.08,137.41,369.06z"/>
	<path class="st0" d="M123.67,368.49c-1.48,2.12-0.3,5.87,0.96,7.02c0.93,0.85,2.1,1.35,3.11,1.7c0.67,0.23,1.44,0.06,1.78-1.31
		c0.65-2.68-0.61-4.48-1.85-5.53C126.44,368.45,124.86,366.79,123.67,368.49z"/>
</g>
<g>
	<path class="st8" d="M150.88,367.55c0,0,5.18-7.26,10.3-15.21c5.12-7.95,14.37-15.07,14.97-14.59c0.6,0.47-6.67,12.47-12.35,19.12
		c-5.67,6.65-11.73,12.71-11.73,12.71L150.88,367.55z"/>
	<polygon class="st14" points="150.7,367.6 154.1,362.3 155.93,366.03 151.99,370.07 	"/>
	<g>
		<g>
			<path class="st8" d="M150.7,367.6c-1.29,0.17-2.66,0.95-3.61,3.82c-1.15,3.46-2.78,3.73-2.78,3.73s5.71,2.42,7.68-5.08
				L150.7,367.6z"/>
			<path class="st15" d="M150.7,367.6c-1.29,0.17-2.66,0.95-3.61,3.82c-1.15,3.46-2.78,3.73-2.78,3.73s5.71,2.42,7.68-5.08
				L150.7,367.6z"/>
		</g>
		<path class="st8" d="M144.08,375.23c0.18-0.47,1.7-0.74,2.42-2.51c0.67-1.67,3.74,2.03,2.03,2.62
			C146.59,376,143.75,376.1,144.08,375.23z"/>
	</g>
</g>
<g>
	<g>
		<path class="st8" d="M121.31,292.68c-1.5,3.47-5.53,5.07-9,3.57c-3.47-1.5-5.07-5.53-3.57-9c1.5-3.47,5.53-5.07,9-3.57
			C121.21,285.18,122.81,289.21,121.31,292.68z"/>
		
			<rect x="123.15" y="258.57" transform="matrix(0.9179 0.3969 -0.3969 0.9179 119.7755 -27.2645)" class="st8" width="5.23" height="34.41"/>
		<path class="st8" d="M145.59,292.33c-1.5,3.47-5.53,5.07-9,3.57c-3.47-1.5-5.07-5.53-3.57-9c1.5-3.47,5.53-5.07,9-3.57
			C145.5,284.83,147.09,288.86,145.59,292.33z"/>
		
			<rect x="147.44" y="258.22" transform="matrix(0.9179 0.3969 -0.3969 0.9179 121.6387 -36.9325)" class="st8" width="5.23" height="34.41"/>
		<polygon class="st8" points="159.26,260.74 128.37,263.17 130.19,258.94 161.08,256.52 		"/>
		<polygon class="st8" points="155.82,268.7 124.93,271.13 126.75,266.9 157.64,264.48 		"/>
	</g>
	<g class="st16">
		<path d="M121.31,292.68c-1.5,3.47-5.53,5.07-9,3.57c-3.47-1.5-5.07-5.53-3.57-9c1.5-3.47,5.53-5.07,9-3.57
			C121.21,285.18,122.81,289.21,121.31,292.68z"/>
		<rect x="123.15" y="258.57" transform="matrix(0.9179 0.3969 -0.3969 0.9179 119.7755 -27.2645)" width="5.23" height="34.41"/>
		<path d="M145.59,292.33c-1.5,3.47-5.53,5.07-9,3.57c-3.47-1.5-5.07-5.53-3.57-9c1.5-3.47,5.53-5.07,9-3.57
			C145.5,284.83,147.09,288.86,145.59,292.33z"/>
		<rect x="147.44" y="258.22" transform="matrix(0.9179 0.3969 -0.3969 0.9179 121.6387 -36.9325)" width="5.23" height="34.41"/>
		<polygon points="159.26,260.74 128.37,263.17 130.19,258.94 161.08,256.52 		"/>
		<polygon points="155.82,268.7 124.93,271.13 126.75,266.9 157.64,264.48 		"/>
	</g>
</g>
<g>
	<path class="st8" d="M148.59,326.81c-0.53,2.79-3.22,4.62-6.02,4.09c-2.79-0.53-4.62-3.22-4.09-6.02c0.53-2.79,3.22-4.62,6.02-4.09
		C147.28,321.32,149.12,324.02,148.59,326.81z"/>
	
		<rect x="147.12" y="300.74" transform="matrix(0.9824 0.1868 -0.1868 0.9824 61.2249 -22.3288)" class="st8" width="3.93" height="25.87"/>
	
		<rect x="163.2" y="296.86" transform="matrix(0.9824 0.1868 -0.1868 0.9824 59.0723 -25.5653)" class="st8" width="3.93" height="7.48"/>
	<polygon class="st8" points="167.6,298.27 148.92,304 149.57,300.6 168.25,294.87 	"/>
	<polygon class="st8" points="166.39,304.67 147.7,310.41 148.35,307.01 167.03,301.27 	"/>
</g>
</svg>
